<?xml version="1.0" encoding="UTF-8"?>
<svg id="Layer_2" data-name="Layer 2" xmlns="http://www.w3.org/2000/svg" viewBox="0 0 71 71">
  <defs>
    <style>
      .cls-1 {
        fill: #344347;
      }

      .cls-2 {
        fill: #f2f2f2;
      }
    </style>
  </defs>
  <g id="Layer_2-2" data-name="Layer 2">
    <g>
      <circle class="cls-2" cx="35.5" cy="35.5" r="35.5"/>
      <g>
        <path class="cls-1" d="M29,46.05c-.41,0-.53-.1-.56-.13-.04-.05-.13-.2-.13-.63v-.5c1.6-1.28,2.41-2.99,2.41-5.09,0-1.66-.54-3.01-1.61-4.01-.23-.21-.5-.42-.81-.61v-2.32c.26-.29.48-.59.65-.91.38-.7.57-1.5.57-2.38,0-1.74-.72-3.08-2.14-3.99-.29-.18-.61-.35-.96-.5v-.02h12.6c2.54,0,4.5.55,5.86,1.64-.84.79-1.53,1.7-2.06,2.69-.93,1.75-1.4,3.75-1.4,5.96,0,1.38.2,2.72.58,4-.75.19-1.56.28-2.42.28-1.03,0-1.95-.13-2.74-.38l-.51-.16v6.3c0,.43-.09.58-.13.63-.03.03-.14.13-.56.13h-6.65ZM37.35,25.74c-.52,0-.8.23-.94.42l-.08.11v11.55l.08.1c.14.19.42.42.94.42.33,0,.6-.14.78-.4.16-.22.24-.5.24-.82v-10.17c0-.32-.08-.6-.24-.82-.19-.26-.46-.4-.78-.4Z"/>
        <path class="cls-1" d="M52.92,46.6c-1.96,0-3.77-.47-5.38-1.4-1.61-.92-2.91-2.27-3.87-3.99-.29-.51-.53-1.09-.78-1.82-.44-1.31-.67-2.7-.67-4.14,0-2.07.44-3.96,1.3-5.59.55-1.04,1.29-1.97,2.21-2.77.53-.46,1-.81,1.49-1.09,1.6-.94,3.48-1.41,5.59-1.41,1.58,0,3.03.26,4.29.78,1.25.51,2.25,1.24,2.98,2.17.72.91,1.08,1.97,1.08,3.14,0,1.36-.47,2.42-1.44,3.24-.97.82-2.29,1.24-3.92,1.24-.99,0-1.9-.19-2.71-.57-.8-.37-1.44-.91-1.92-1.58-.47-.67-.7-1.42-.7-2.29,0-1.07.35-1.9,1.08-2.53.73-.63,1.75-.96,3.03-.96h.16l.12-.12c.26-.26.31-.53.31-.71,0-.31-.15-.57-.41-.74-.22-.14-.49-.21-.81-.21-1.53,0-2.83.51-3.86,1.53-1.04,1.01-1.57,2.28-1.57,3.77,0,1.84.68,3.38,2.03,4.57,1.33,1.18,3.05,1.78,5.11,1.78,1.21,0,2.37-.23,3.43-.69,1.07-.46,1.97-1.1,2.66-1.92.11-.13.19-.22.25-.27h.47s.09.15.17.57c.08.42.12.89.12,1.41,0,1.97-.42,3.77-1.24,5.36-.82,1.58-1.99,2.87-3.48,3.81-1.49.94-3.22,1.42-5.15,1.42Z"/>
        <path class="cls-1" d="M11.37,46.05c-.27,0-.47-.05-.55-.14-.04-.04-.14-.19-.14-.62v-16.98c0-.6-.05-1.03-.15-1.33-.11-.31-.3-.59-.56-.85-.24-.23-.62-.52-1.17-.88v-.29s12.61,0,12.61,0c1.82,0,3.33.22,4.49.66.4.15.77.33,1.07.53,1.19.76,1.78,1.85,1.78,3.32,0,.74-.16,1.41-.48,2-.16.3-.38.59-.64.86-.23.24-.49.46-.78.64-.63.42-1.43.73-2.36.91l.03.78c1.27.15,2.34.48,3.19.98.35.21.63.41.86.63.91.85,1.36,1.97,1.36,3.43,0,1.94-.74,3.44-2.26,4.59-1.57,1.18-3.69,1.76-6.33,1.76h-9.97ZM18.71,44.73l.08.1c.14.19.42.42.94.42.33,0,.6-.14.78-.4.16-.22.24-.5.24-.82v-8.13c0-.77-.48-1.22-1.32-1.22h-.72v10.04ZM19.73,25.74c-.52,0-.8.23-.94.42l-.08.11v7.73h.82c.76,0,1.22-.46,1.22-1.22v-5.82c0-.32-.08-.6-.24-.82-.19-.26-.46-.4-.78-.4Z"/>
      </g>
    </g>
  </g>
</svg>